<svg width="54" height="54" viewBox="0 0 54 54" fill="none" xmlns="http://www.w3.org/2000/svg">
    <g clip-path="url(#5f0en10dda)" stroke="#fff" stroke-width="3" stroke-miterlimit="10">
        <path d="M26.742 2.242c13.79 0 25.01 11.19 25.01 24.942"/>
        <path d="M26.742 10.242c9.363 0 16.988 7.597 16.988 16.942M26.742 19.16c4.434 0 8.044 3.6 8.044 8.023M9.596 8.5 7.16 10.965C.591 17.57.614 28.228 7.206 34.81l12.03 11.997a16.895 16.895 0 0 0 11.977 4.945c4.338 0 8.675-1.651 11.978-4.945l2.404-2.398-9.827-9.8-3.49 3.48a4.238 4.238 0 0 1-5.993 0l-9.341-9.315a5.638 5.638 0 0 1 0-7.985l2.487-2.48L9.596 8.5z"/>
    </g>
    <defs>
        <clipPath id="5f0en10dda">
            <path fill="#fff" d="M0 0h54v54H0z"/>
        </clipPath>
    </defs>
</svg>
